<svg width="68" height="65" viewBox="0 0 68 65" fill="none" xmlns="http://www.w3.org/2000/svg">
<g clip-path="url(#clip0)" filter="url(#filter0_d)">
<path d="M56.7586 6.72412H57.7931C61.2211 6.72412 64 9.50304 64 12.931V50.1724C64 53.6004 61.2211 56.3793 57.7931 56.3793H10.2069C6.77892 56.3793 4 53.6004 4 50.1724V12.931C4 9.50304 6.77892 6.72412 10.2069 6.72412H56.7586Z" fill="#8697CB"/>
<path d="M36.0689 29.4828C36.0689 31.1967 34.6795 32.5862 32.9655 32.5862C32.7707 32.5866 32.5764 32.5657 32.3862 32.5241C31.4068 35.57 29.1081 38.013 26.1275 39.1759C23.8703 40.0448 21.3709 40.0448 19.1137 39.1759C16.1332 38.013 13.8345 35.57 12.8551 32.5241C12.6648 32.5657 12.4706 32.5866 12.2758 32.5862C10.5618 32.5862 9.17236 31.1967 9.17236 29.4828C9.17236 27.7688 10.5618 26.3793 12.2758 26.3793V22.0862C12.8788 22.6173 13.5824 23.0219 14.3448 23.2759C14.3448 23.2759 19.6931 25.0035 23.0551 22.8414C26.4172 20.6793 32.2931 21.5793 33.6482 23.731C33.4965 24.6316 33.2681 25.5176 32.9655 26.3793C33.7886 26.3793 34.5779 26.7063 35.1599 27.2883C35.7419 27.8703 36.0689 28.6597 36.0689 29.4828Z" fill="#FDD7AD"/>
<path d="M33.6483 23.731C32.2931 21.5793 26.4173 20.6897 23.0552 22.8414C19.6931 24.9931 14.3449 23.2759 14.3449 23.2759C13.5825 23.0219 12.8789 22.6173 12.2759 22.0862C8.38625 18.6931 9.17246 10.8621 9.17246 10.8621C12.2759 17.069 25.7242 11.8965 30.8966 15C34.1862 16.9759 34.1242 21.031 33.6483 23.731Z" fill="#A56A43"/>
<path d="M27.7931 46.0345C27.7931 48.8911 25.4773 51.2069 22.6207 51.2069C19.764 51.2069 17.4482 48.8911 17.4482 46.0345C20.231 43.9448 19.7448 40.9345 19.1138 39.1758C21.371 40.0448 23.8704 40.0448 26.1276 39.1758C25.4965 40.9345 25.0103 43.9448 27.7931 46.0345Z" fill="#F9C795"/>
<path d="M37.1034 53.2759V54.3103C37.1 55.4516 36.1757 56.3759 35.0345 56.3793H10.2069C9.06566 56.3759 8.14135 55.4516 8.13794 54.3103V53.2759C8.13794 49.2766 11.38 46.0345 15.3793 46.0345H17.4483C17.4483 48.8911 19.764 51.2069 22.6207 51.2069C25.4773 51.2069 27.7931 48.8911 27.7931 46.0345H29.8621C31.7826 46.0345 33.6245 46.7974 34.9825 48.1554C36.3405 49.5135 37.1034 51.3553 37.1034 53.2759Z" fill="#3B97D3"/>
<path d="M15.3794 53.2758V56.3793H13.3104V53.2758C13.3104 52.7045 13.7736 52.2413 14.3449 52.2413C14.9162 52.2413 15.3794 52.7045 15.3794 53.2758Z" fill="#285680"/>
<path d="M31.931 53.2758V56.3793H29.8621V53.2758C29.8621 52.7045 30.3252 52.2413 30.8965 52.2413C31.4679 52.2413 31.931 52.7045 31.931 53.2758Z" fill="#285680"/>
<path d="M56.7586 6.72411V26.2345C56.3523 25.8787 56.1031 25.3767 56.0655 24.8379L56.0552 24.6207C56.0152 24.008 55.7063 23.4444 55.2113 23.0812C54.7164 22.718 54.0861 22.5923 53.4897 22.7379L53.3035 22.7896C52.5369 22.9773 51.7303 22.7124 51.2242 22.1069L51.1 21.9517C50.7097 21.4801 50.1294 21.2071 49.5173 21.2071C48.9051 21.2071 48.3248 21.4801 47.9345 21.9517L47.8104 22.1069C47.3042 22.7124 46.4976 22.9773 45.731 22.7896L45.5448 22.7379C44.9484 22.5923 44.3181 22.718 43.8232 23.0812C43.3282 23.4444 43.0193 24.008 42.9793 24.6207L42.969 24.8379C42.9314 25.3767 42.6822 25.8787 42.2759 26.2345V6.72411C42.2759 5.01013 43.6653 3.62067 45.3793 3.62067H53.6552C55.3692 3.62067 56.7586 5.01013 56.7586 6.72411Z" fill="#802F34"/>
<path d="M58.5173 32.3276C58.8365 32.8507 58.9127 33.4867 58.7261 34.0705C58.5395 34.6542 58.1084 35.1281 57.5448 35.3689L57.3483 35.4414C57.0896 35.5499 56.8569 35.7121 56.6655 35.9172C56.3164 36.2704 56.1038 36.7359 56.0655 37.231L56.0552 37.4482C56.0152 38.0609 55.7063 38.6245 55.2114 38.9877C54.7164 39.3509 54.0861 39.4766 53.4897 39.331L53.3035 39.2793C52.7215 39.137 52.1064 39.254 51.6173 39.6C51.4695 39.7011 51.3371 39.8231 51.2242 39.962L51.1 40.1172C50.7097 40.5888 50.1294 40.8618 49.5173 40.8618C48.9051 40.8618 48.3248 40.5888 47.9345 40.1172L47.8104 39.962C47.6947 39.8257 47.5627 39.7041 47.4173 39.6C46.9281 39.254 46.313 39.137 45.7311 39.2793L45.5448 39.331C44.9484 39.4766 44.3181 39.3509 43.8232 38.9877C43.3282 38.6245 43.0193 38.0609 42.9793 37.4482L42.969 37.231C42.9307 36.7359 42.7181 36.2704 42.369 35.9172C42.1776 35.7121 41.9449 35.5499 41.6862 35.4414L41.4897 35.3689C40.9261 35.1281 40.4951 34.6542 40.3084 34.0705C40.1218 33.4867 40.198 32.8507 40.5173 32.3276L40.6311 32.131C41.0448 31.4585 41.0448 30.6104 40.6311 29.9379L40.5173 29.7414C40.198 29.2182 40.1218 28.5822 40.3084 27.9984C40.4951 27.4147 40.9261 26.9408 41.4897 26.7L41.6862 26.6276C41.9064 26.536 42.1067 26.4025 42.2759 26.2345C42.6823 25.8787 42.9314 25.3767 42.969 24.8379L42.9793 24.6207C43.0193 24.008 43.3282 23.4444 43.8232 23.0812C44.3181 22.718 44.9484 22.5923 45.5448 22.7379L45.7311 22.7896C46.4977 22.9773 47.3042 22.7124 47.8104 22.1069L47.9345 21.9517C48.3248 21.4801 48.9051 21.2071 49.5173 21.2071C50.1294 21.2071 50.7097 21.4801 51.1 21.9517L51.2242 22.1069C51.7303 22.7124 52.5369 22.9773 53.3035 22.7896L53.4897 22.7379C54.0861 22.5923 54.7164 22.718 55.2114 23.0812C55.7063 23.4444 56.0152 24.008 56.0552 24.6207L56.0655 24.8379C56.1031 25.3767 56.3523 25.8787 56.7586 26.2345C56.9279 26.4025 57.1281 26.536 57.3483 26.6276L57.5448 26.7C58.1084 26.9408 58.5395 27.4147 58.7261 27.9984C58.9127 28.5822 58.8365 29.2182 58.5173 29.7414L58.4035 29.9379C57.9898 30.6104 57.9898 31.4585 58.4035 32.131L58.5173 32.3276Z" fill="#FF5364"/>
<path d="M47.4173 39.6L44.0449 45.4552C43.8337 45.816 43.4262 46.0142 43.012 45.9576C42.5978 45.9011 42.2584 45.6008 42.1518 45.1965L41.9242 44.369C41.8545 44.1046 41.6817 43.8791 41.4445 43.743C41.2074 43.6069 40.9256 43.5716 40.6621 43.6448L39.8345 43.8621C39.4313 43.971 39.0022 43.8269 38.7466 43.4966C38.4909 43.1663 38.459 42.7147 38.6656 42.3517L42.369 35.9172C42.7181 36.2704 42.9307 36.7359 42.969 37.231L42.9794 37.4483C43.0193 38.0609 43.3282 38.6245 43.8232 38.9877C44.3182 39.351 44.9485 39.4766 45.5449 39.331L45.7311 39.2793C46.3131 39.137 46.9282 39.254 47.4173 39.6Z" fill="#802F34"/>
<path d="M59.2001 43.8621L58.3725 43.6448C58.109 43.5716 57.8272 43.6069 57.5901 43.743C57.3529 43.8791 57.1801 44.1046 57.1104 44.369L56.8828 45.1965C56.7762 45.6008 56.4368 45.9011 56.0226 45.9576C55.6084 46.0142 55.2009 45.816 54.9897 45.4552L51.6173 39.6C52.1064 39.254 52.7215 39.137 53.3035 39.2793L53.4897 39.331C54.0861 39.4766 54.7164 39.351 55.2114 38.9877C55.7064 38.6245 56.0153 38.0609 56.0552 37.4483L56.0656 37.231C56.1039 36.7359 56.3165 36.2704 56.6656 35.9172L60.369 42.3517C60.5756 42.7147 60.5437 43.1663 60.288 43.4966C60.0324 43.8269 59.6033 43.971 59.2001 43.8621Z" fill="#802F34"/>
</g>
<defs>
<filter id="filter0_d" x="0" y="0" width="68" height="68" filterUnits="userSpaceOnUse" color-interpolation-filters="sRGB">
<feFlood flood-opacity="0" result="BackgroundImageFix"/>
<feColorMatrix in="SourceAlpha" type="matrix" values="0 0 0 0 0 0 0 0 0 0 0 0 0 0 0 0 0 0 127 0"/>
<feOffset dy="4"/>
<feGaussianBlur stdDeviation="2"/>
<feColorMatrix type="matrix" values="0 0 0 0 0 0 0 0 0 0 0 0 0 0 0 0 0 0 0.25 0"/>
<feBlend mode="normal" in2="BackgroundImageFix" result="effect1_dropShadow"/>
<feBlend mode="normal" in="SourceGraphic" in2="effect1_dropShadow" result="shape"/>
</filter>
<clipPath id="clip0">
<rect width="60" height="60" fill="white" transform="translate(4)"/>
</clipPath>
</defs>
</svg>
