<svg width="68" height="68" viewBox="0 0 68 68" fill="none" xmlns="http://www.w3.org/2000/svg">
<g clip-path="url(#clip0)" filter="url(#filter0_d)">
<rect width="60" height="60" transform="translate(4)" fill="url(#paint0_linear)"/>
<path d="M63.4915 13.2203V19.322H4.50842V13.2203C4.50842 9.85047 7.24024 7.11865 10.6101 7.11865H57.3898C60.7597 7.11865 63.4915 9.85047 63.4915 13.2203Z" fill="#C03A2B"/>
<path d="M63.4915 19.322V53.8983C63.4915 57.2682 60.7597 60 57.3898 60H10.6101C7.24024 60 4.50842 57.2682 4.50842 53.8983V19.322H63.4915Z" fill="#B0D3F0"/>
<path d="M14.678 14.2373C14.1163 14.2373 13.661 13.782 13.661 13.2204V12.2034C13.661 11.6418 14.1163 11.1865 14.678 11.1865C15.2396 11.1865 15.6949 11.6418 15.6949 12.2034V13.2204C15.6949 13.782 15.2396 14.2373 14.678 14.2373Z" fill="#A5A5A4"/>
<path d="M14.678 9.15254C14.1163 9.15254 13.661 8.69724 13.661 8.13559V1.01695C13.661 0.455304 14.1163 0 14.678 0C15.2396 0 15.6949 0.455304 15.6949 1.01695V8.13559C15.6949 8.69724 15.2396 9.15254 14.678 9.15254Z" fill="#A5A5A4"/>
<path d="M53.322 14.2373C52.7604 14.2373 52.3051 13.782 52.3051 13.2204V12.2034C52.3051 11.6418 52.7604 11.1865 53.322 11.1865C53.8837 11.1865 54.339 11.6418 54.339 12.2034V13.2204C54.339 13.782 53.8837 14.2373 53.322 14.2373Z" fill="#A5A5A4"/>
<path d="M53.322 9.15254C52.7604 9.15254 52.3051 8.69724 52.3051 8.13559V1.01695C52.3051 0.455304 52.7604 0 53.322 0C53.8837 0 54.339 0.455304 54.339 1.01695V8.13559C54.339 8.69724 53.8837 9.15254 53.322 9.15254Z" fill="#A5A5A4"/>
<path d="M42.1356 27.4576H40.1017C39.54 27.4576 39.0847 27.0023 39.0847 26.4407C39.0847 25.879 39.54 25.4237 40.1017 25.4237H42.1356C42.6972 25.4237 43.1525 25.879 43.1525 26.4407C43.1525 27.0023 42.6972 27.4576 42.1356 27.4576Z" fill="#285680"/>
<path d="M49.2542 27.4576H47.2203C46.6587 27.4576 46.2034 27.0023 46.2034 26.4407C46.2034 25.879 46.6587 25.4237 47.2203 25.4237H49.2542C49.8159 25.4237 50.2712 25.879 50.2712 26.4407C50.2712 27.0023 49.8159 27.4576 49.2542 27.4576Z" fill="#285680"/>
<path d="M56.3728 27.4576H54.3389C53.7772 27.4576 53.3219 27.0023 53.3219 26.4407C53.3219 25.879 53.7772 25.4237 54.3389 25.4237H56.3728C56.9344 25.4237 57.3897 25.879 57.3897 26.4407C57.3897 27.0023 56.9344 27.4576 56.3728 27.4576Z" fill="#285680"/>
<path d="M13.661 33.5593H11.6271C11.0654 33.5593 10.6101 33.104 10.6101 32.5423C10.6101 31.9807 11.0654 31.5254 11.6271 31.5254H13.661C14.2226 31.5254 14.6779 31.9807 14.6779 32.5423C14.6779 33.104 14.2226 33.5593 13.661 33.5593Z" fill="#285680"/>
<path d="M20.7796 33.5593H18.7457C18.1841 33.5593 17.7288 33.104 17.7288 32.5423C17.7288 31.9807 18.1841 31.5254 18.7457 31.5254H20.7796C21.3412 31.5254 21.7966 31.9807 21.7966 32.5423C21.7966 33.104 21.3412 33.5593 20.7796 33.5593Z" fill="#285680"/>
<path d="M27.8983 33.5593H25.8644C25.3027 33.5593 24.8474 33.104 24.8474 32.5423C24.8474 31.9807 25.3027 31.5254 25.8644 31.5254H27.8983C28.4599 31.5254 28.9152 31.9807 28.9152 32.5423C28.9152 33.104 28.4599 33.5593 27.8983 33.5593Z" fill="#285680"/>
<path d="M35.0169 33.5593H32.983C32.4214 33.5593 31.9661 33.104 31.9661 32.5423C31.9661 31.9807 32.4214 31.5254 32.983 31.5254H35.0169C35.5786 31.5254 36.0339 31.9807 36.0339 32.5423C36.0339 33.104 35.5786 33.5593 35.0169 33.5593Z" fill="#285680"/>
<path d="M27.8983 27.4576H25.8644C25.3027 27.4576 24.8474 27.0023 24.8474 26.4407C24.8474 25.879 25.3027 25.4237 25.8644 25.4237H27.8983C28.4599 25.4237 28.9152 25.879 28.9152 26.4407C28.9152 27.0023 28.4599 27.4576 27.8983 27.4576Z" fill="#285680"/>
<path d="M35.0169 27.4576H32.983C32.4214 27.4576 31.9661 27.0023 31.9661 26.4407C31.9661 25.879 32.4214 25.4237 32.983 25.4237H35.0169C35.5786 25.4237 36.0339 25.879 36.0339 26.4407C36.0339 27.0023 35.5786 27.4576 35.0169 27.4576Z" fill="#285680"/>
<path d="M42.1356 33.5593H40.1017C39.54 33.5593 39.0847 33.104 39.0847 32.5423C39.0847 31.9807 39.54 31.5254 40.1017 31.5254H42.1356C42.6972 31.5254 43.1525 31.9807 43.1525 32.5423C43.1525 33.104 42.6972 33.5593 42.1356 33.5593Z" fill="#285680"/>
<path d="M49.2542 33.5593H47.2203C46.6587 33.5593 46.2034 33.104 46.2034 32.5423C46.2034 31.9807 46.6587 31.5254 47.2203 31.5254H49.2542C49.8159 31.5254 50.2712 31.9807 50.2712 32.5423C50.2712 33.104 49.8159 33.5593 49.2542 33.5593Z" fill="#285680"/>
<path d="M56.3728 33.5593H54.3389C53.7772 33.5593 53.3219 33.104 53.3219 32.5423C53.3219 31.9807 53.7772 31.5254 54.3389 31.5254H56.3728C56.9344 31.5254 57.3897 31.9807 57.3897 32.5423C57.3897 33.104 56.9344 33.5593 56.3728 33.5593Z" fill="#285680"/>
<path d="M13.661 39.661H11.6271C11.0654 39.661 10.6101 39.2057 10.6101 38.6441C10.6101 38.0824 11.0654 37.6271 11.6271 37.6271H13.661C14.2226 37.6271 14.6779 38.0824 14.6779 38.6441C14.6779 39.2057 14.2226 39.661 13.661 39.661Z" fill="#285680"/>
<path d="M20.7796 39.661H18.7457C18.1841 39.661 17.7288 39.2057 17.7288 38.6441C17.7288 38.0824 18.1841 37.6271 18.7457 37.6271H20.7796C21.3412 37.6271 21.7966 38.0824 21.7966 38.6441C21.7966 39.2057 21.3412 39.661 20.7796 39.661Z" fill="#285680"/>
<path d="M27.8983 39.661H25.8644C25.3027 39.661 24.8474 39.2057 24.8474 38.6441C24.8474 38.0824 25.3027 37.6271 25.8644 37.6271H27.8983C28.4599 37.6271 28.9152 38.0824 28.9152 38.6441C28.9152 39.2057 28.4599 39.661 27.8983 39.661Z" fill="#285680"/>
<path d="M35.0169 39.661H32.983C32.4214 39.661 31.9661 39.2057 31.9661 38.6441C31.9661 38.0824 32.4214 37.6271 32.983 37.6271H35.0169C35.5786 37.6271 36.0339 38.0824 36.0339 38.6441C36.0339 39.2057 35.5786 39.661 35.0169 39.661Z" fill="#285680"/>
<path d="M42.1356 39.661H40.1017C39.54 39.661 39.0847 39.2057 39.0847 38.6441C39.0847 38.0824 39.54 37.6271 40.1017 37.6271H42.1356C42.6972 37.6271 43.1525 38.0824 43.1525 38.6441C43.1525 39.2057 42.6972 39.661 42.1356 39.661Z" fill="#285680"/>
<path d="M49.2542 39.661H47.2203C46.6587 39.661 46.2034 39.2057 46.2034 38.6441C46.2034 38.0824 46.6587 37.6271 47.2203 37.6271H49.2542C49.8159 37.6271 50.2712 38.0824 50.2712 38.6441C50.2712 39.2057 49.8159 39.661 49.2542 39.661Z" fill="#285680"/>
<path d="M56.3728 39.661H54.3389C53.7772 39.661 53.3219 39.2057 53.3219 38.6441C53.3219 38.0824 53.7772 37.6271 54.3389 37.6271H56.3728C56.9344 37.6271 57.3897 38.0824 57.3897 38.6441C57.3897 39.2057 56.9344 39.661 56.3728 39.661Z" fill="#285680"/>
<path d="M13.661 45.7627H11.6271C11.0654 45.7627 10.6101 45.3074 10.6101 44.7457C10.6101 44.1841 11.0654 43.7288 11.6271 43.7288H13.661C14.2226 43.7288 14.6779 44.1841 14.6779 44.7457C14.6779 45.3074 14.2226 45.7627 13.661 45.7627Z" fill="#285680"/>
<path d="M20.7796 45.7627H18.7457C18.1841 45.7627 17.7288 45.3074 17.7288 44.7457C17.7288 44.1841 18.1841 43.7288 18.7457 43.7288H20.7796C21.3412 43.7288 21.7966 44.1841 21.7966 44.7457C21.7966 45.3074 21.3412 45.7627 20.7796 45.7627Z" fill="#285680"/>
<path d="M27.8983 45.7627H25.8644C25.3027 45.7627 24.8474 45.3074 24.8474 44.7457C24.8474 44.1841 25.3027 43.7288 25.8644 43.7288H27.8983C28.4599 43.7288 28.9152 44.1841 28.9152 44.7457C28.9152 45.3074 28.4599 45.7627 27.8983 45.7627Z" fill="#285680"/>
<path d="M35.0169 45.7627H32.983C32.4214 45.7627 31.9661 45.3074 31.9661 44.7457C31.9661 44.1841 32.4214 43.7288 32.983 43.7288H35.0169C35.5786 43.7288 36.0339 44.1841 36.0339 44.7457C36.0339 45.3074 35.5786 45.7627 35.0169 45.7627Z" fill="#285680"/>
<path d="M13.661 51.8644H11.6271C11.0654 51.8644 10.6101 51.4091 10.6101 50.8475C10.6101 50.2858 11.0654 49.8305 11.6271 49.8305H13.661C14.2226 49.8305 14.6779 50.2858 14.6779 50.8475C14.6779 51.4091 14.2226 51.8644 13.661 51.8644Z" fill="#285680"/>
<path d="M20.7796 51.8644H18.7457C18.1841 51.8644 17.7288 51.4091 17.7288 50.8475C17.7288 50.2858 18.1841 49.8305 18.7457 49.8305H20.7796C21.3412 49.8305 21.7966 50.2858 21.7966 50.8475C21.7966 51.4091 21.3412 51.8644 20.7796 51.8644Z" fill="#285680"/>
<path d="M27.8983 51.8644H25.8644C25.3027 51.8644 24.8474 51.4091 24.8474 50.8475C24.8474 50.2858 25.3027 49.8305 25.8644 49.8305H27.8983C28.4599 49.8305 28.9152 50.2858 28.9152 50.8475C28.9152 51.4091 28.4599 51.8644 27.8983 51.8644Z" fill="#285680"/>
<path d="M35.0169 51.8644H32.983C32.4214 51.8644 31.9661 51.4091 31.9661 50.8475C31.9661 50.2858 32.4214 49.8305 32.983 49.8305H35.0169C35.5786 49.8305 36.0339 50.2858 36.0339 50.8475C36.0339 51.4091 35.5786 51.8644 35.0169 51.8644Z" fill="#285680"/>
<path d="M42.1356 45.7627H40.1017C39.54 45.7627 39.0847 45.3074 39.0847 44.7457C39.0847 44.1841 39.54 43.7288 40.1017 43.7288H42.1356C42.6972 43.7288 43.1525 44.1841 43.1525 44.7457C43.1525 45.3074 42.6972 45.7627 42.1356 45.7627Z" fill="#285680"/>
<path d="M49.2542 45.7627H47.2203C46.6587 45.7627 46.2034 45.3074 46.2034 44.7457C46.2034 44.1841 46.6587 43.7288 47.2203 43.7288H49.2542C49.8159 43.7288 50.2712 44.1841 50.2712 44.7457C50.2712 45.3074 49.8159 45.7627 49.2542 45.7627Z" fill="#285680"/>
<path d="M56.3728 45.7627H54.3389C53.7772 45.7627 53.3219 45.3074 53.3219 44.7457C53.3219 44.1841 53.7772 43.7288 54.3389 43.7288H56.3728C56.9344 43.7288 57.3897 44.1841 57.3897 44.7457C57.3897 45.3074 56.9344 45.7627 56.3728 45.7627Z" fill="#285680"/>
<path d="M50.2711 56.9492H43.1524C42.5908 56.9492 42.1355 56.4939 42.1355 55.9322C42.1355 55.3706 42.5908 54.9153 43.1524 54.9153H50.2711C50.8327 54.9153 51.288 55.3706 51.288 55.9322C51.288 56.4939 50.8327 56.9492 50.2711 56.9492Z" fill="white"/>
<path d="M56.3729 56.9492H54.339C53.7773 56.9492 53.322 56.4939 53.322 55.9322C53.322 55.3706 53.7773 54.9153 54.339 54.9153H56.3729C56.9345 54.9153 57.3898 55.3706 57.3898 55.9322C57.3898 56.4939 56.9345 56.9492 56.3729 56.9492Z" fill="white"/>
</g>
<defs>
<filter id="filter0_d" x="0" y="0" width="68" height="68" filterUnits="userSpaceOnUse" color-interpolation-filters="sRGB">
<feFlood flood-opacity="0" result="BackgroundImageFix"/>
<feColorMatrix in="SourceAlpha" type="matrix" values="0 0 0 0 0 0 0 0 0 0 0 0 0 0 0 0 0 0 127 0"/>
<feOffset dy="4"/>
<feGaussianBlur stdDeviation="2"/>
<feColorMatrix type="matrix" values="0 0 0 0 0 0 0 0 0 0 0 0 0 0 0 0 0 0 0.25 0"/>
<feBlend mode="normal" in2="BackgroundImageFix" result="effect1_dropShadow"/>
<feBlend mode="normal" in="SourceGraphic" in2="effect1_dropShadow" result="shape"/>
</filter>
<linearGradient id="paint0_linear" x1="30" y1="0" x2="30" y2="60" gradientUnits="userSpaceOnUse">
<stop stop-color="white"/>
<stop offset="1" stop-color="white" stop-opacity="0"/>
</linearGradient>
<clipPath id="clip0">
<rect width="60" height="60" fill="white" transform="translate(4)"/>
</clipPath>
</defs>
</svg>
