<svg width="68" height="68" viewBox="0 0 68 68" fill="none" xmlns="http://www.w3.org/2000/svg">
<g filter="url(#filter0_d)">
<path d="M62.2621 34.6965C59.9723 31.9841 59.9723 28.0158 62.2621 25.3034L62.2724 25.2931C64.032 23.2132 64.482 20.3244 63.4383 17.8079C62.3947 15.2914 60.0324 13.5689 57.3172 13.3448L57.3069 13.3345C56.1777 13.2479 55.0854 12.8933 54.1207 12.3C53.8094 12.1074 53.5121 11.8931 53.231 11.6586C51.7494 10.4106 50.8261 8.62362 50.6655 6.69308L50.6552 6.68274C50.431 3.9676 48.7086 1.60529 46.1921 0.561635C43.6755 -0.482019 40.7868 -0.0320527 38.7069 1.72756L38.6965 1.73791C37.3849 2.85041 35.7199 3.45923 34 3.45515C32.2801 3.45923 30.615 2.85041 29.3034 1.73791L29.2931 1.72756C27.2132 -0.0320527 24.3244 -0.482019 21.8079 0.561635C19.2914 1.60529 17.5689 3.9676 17.3448 6.68274L17.3345 6.69308C17.0429 10.2332 14.2332 13.0429 10.6931 13.3345L10.6827 13.3448C7.96761 13.5689 5.60529 15.2914 4.56163 17.8079C3.51798 20.3244 3.96795 23.2132 5.72756 25.2931L5.73791 25.3034C6.85041 26.615 7.45923 28.2801 7.45515 30C7.45923 31.7199 6.85041 33.3849 5.73791 34.6965L5.72756 34.7069C3.96795 36.7868 3.51798 39.6755 4.56163 42.192C5.60529 44.7086 7.96761 46.431 10.6827 46.6551L10.6931 46.6655C14.2332 46.9571 17.0429 49.7668 17.3345 53.3069L17.3448 53.3172C17.5689 56.0323 19.2914 58.3947 21.8079 59.4383C24.3244 60.482 27.2132 60.032 29.2931 58.2724L29.3034 58.262C32.0158 55.9723 35.9841 55.9723 38.6965 58.262L38.7069 58.2724C40.7868 60.032 43.6755 60.482 46.1921 59.4383C48.7086 58.3947 50.431 56.0323 50.6552 53.3172L50.6655 53.3069C50.8261 51.3763 51.7494 49.5894 53.231 48.3414C53.5121 48.1068 53.8094 47.8925 54.1207 47.7C55.0854 47.1067 56.1777 46.752 57.3069 46.6655L57.3172 46.6551C60.0324 46.431 62.3947 44.7086 63.4383 42.192C64.482 39.6755 64.032 36.7868 62.2724 34.7069L62.2621 34.6965ZM34 37.2414C30.0007 37.2414 26.7586 33.9993 26.7586 30C26.7586 26.0007 30.0007 22.7586 34 22.7586C37.9993 22.7586 41.2414 26.0007 41.2414 30C41.2427 31.9209 40.4802 33.7636 39.1219 35.1219C37.7636 36.4802 35.9209 37.2427 34 37.2414Z" fill="#B49ACA"/>
<path d="M48.7103 14.0069C48.4207 13.7379 48.1206 13.4793 47.8206 13.231C38.9777 5.94799 25.9989 6.78354 18.1627 15.1404C10.3266 23.4972 10.3266 36.5028 18.1627 44.8597C25.9989 53.2165 38.9777 54.052 47.8206 46.769C48.1206 46.5207 48.4207 46.2621 48.7103 45.9931C53.1807 41.8766 55.7242 36.077 55.7242 30C55.7242 23.923 53.1807 18.1234 48.7103 14.0069ZM34 37.2414C30.0007 37.2414 26.7586 33.9993 26.7586 30C26.7586 26.0007 30.0007 22.7586 34 22.7586C37.9993 22.7586 41.2413 26.0007 41.2413 30C41.2427 31.921 40.4802 33.7636 39.1219 35.122C37.7636 36.4803 35.9209 37.2428 34 37.2414Z" fill="#955BA5"/>
<path d="M33.9999 18.6207C27.7153 18.6207 22.6206 23.7154 22.6206 30C22.6206 36.2846 27.7153 41.3793 33.9999 41.3793C40.2845 41.3793 45.3792 36.2846 45.3792 30C45.3809 26.9815 44.1825 24.0862 42.0481 21.9518C39.9137 19.8174 37.0184 18.619 33.9999 18.6207ZM33.9999 37.2414C30.0006 37.2414 26.7585 33.9993 26.7585 30C26.7585 26.0007 30.0006 22.7586 33.9999 22.7586C37.9992 22.7586 41.2413 26.0007 41.2413 30C41.2427 31.9209 40.4802 33.7636 39.1219 35.1219C37.7635 36.4802 35.9209 37.2427 33.9999 37.2414Z" fill="#B49ACA"/>
<path d="M22.6208 12.5255C22.1576 12.5262 21.7504 12.2188 21.624 11.7731C21.4977 11.3275 21.683 10.8522 22.0777 10.6096C23.1157 9.97229 24.203 9.41881 25.3291 8.95446C25.6718 8.80848 26.0665 8.85802 26.3625 9.08414C26.6585 9.31027 26.8101 9.67807 26.7593 10.0471C26.7086 10.4161 26.4634 10.7294 26.1174 10.8672C25.0935 11.2899 24.1052 11.7939 23.1618 12.3745C22.9991 12.4742 22.8117 12.5266 22.6208 12.5255Z" fill="#5D4C72"/>
<path d="M53.1068 41.3793C52.7423 41.379 52.4048 41.1868 52.2185 40.8734C52.0322 40.5601 52.0246 40.1718 52.1985 39.8514C55.9973 32.8125 55.4022 24.2152 50.67 17.7668C45.9378 11.3183 37.9148 8.17213 30.0606 9.68482C29.6918 9.7706 29.3056 9.64804 29.0538 9.36528C28.8019 9.08253 28.7247 8.68477 28.8524 8.32831C28.9801 7.97185 29.2924 7.71365 29.6665 7.65516C38.3078 5.98397 47.1383 9.44304 52.3454 16.5389C57.5525 23.6347 58.2035 33.0962 54.0172 40.8383C53.836 41.172 53.4866 41.3797 53.1068 41.3793Z" fill="#5D4C72"/>
<path d="M34 52.7586C25.4444 52.7593 17.6112 47.9616 13.7241 40.3399C9.83701 32.7183 10.5528 23.5606 15.5769 16.6355C15.791 16.3285 16.1543 16.1611 16.5267 16.1978C16.8992 16.2345 17.2228 16.4695 17.373 16.8123C17.5231 17.1552 17.4763 17.5524 17.2507 17.851C11.571 25.6704 12.0614 36.3801 18.4317 43.6478C24.8021 50.9154 35.3552 52.8048 43.8514 48.1986C44.3536 47.9261 44.9816 48.1123 45.2541 48.6145C45.5267 49.1167 45.3405 49.7447 44.8383 50.0172C41.5089 51.8161 37.7842 52.7582 34 52.7586Z" fill="#5D4C72"/>
<path d="M33.9999 42.4138C28.5628 42.4084 23.7633 38.8621 22.1613 33.6664C20.5593 28.4706 22.5285 22.8373 27.0186 19.7711C31.5086 16.705 37.4723 16.9211 41.7287 20.3042C45.985 23.6873 47.5413 29.4483 45.5675 34.5145C45.433 34.8589 45.1249 35.1055 44.7593 35.1612C44.3938 35.2169 44.0262 35.0734 43.7952 34.7846C43.5642 34.4959 43.5047 34.1058 43.6392 33.7614C45.4364 29.1513 43.7153 23.9142 39.5338 21.269C35.3522 18.6238 29.8827 19.3122 26.487 22.9111C23.0913 26.5099 22.7216 32.0102 25.6051 36.0312C28.4886 40.0521 33.8168 41.4663 38.3148 39.4045C38.8341 39.1657 39.4487 39.3931 39.6875 39.9124C39.9263 40.4318 39.6989 41.0464 39.1796 41.2852C37.5555 42.0331 35.788 42.4182 33.9999 42.4138Z" fill="#3D324C"/>
<path d="M33.9999 38.2758C31.1618 38.276 28.5215 36.8219 27.0046 34.4232C25.4877 32.0244 25.3058 29.0157 26.5227 26.4517C26.7683 25.9355 27.3859 25.7162 27.9021 25.9618C28.4183 26.2075 28.6376 26.8251 28.392 27.3413C27.9952 28.1713 27.7905 29.08 27.793 29.9999C27.793 33.4279 30.5719 36.2068 33.9999 36.2068C37.4279 36.2068 40.2068 33.4279 40.2068 29.9999C40.2068 26.572 37.4279 23.793 33.9999 23.793C33.08 23.7909 32.1714 23.9956 31.3413 24.392C30.8254 24.6377 30.208 24.4186 29.9623 23.9027C29.7166 23.3868 29.9357 22.7694 30.4516 22.5237C31.5595 21.9946 32.7722 21.7213 33.9999 21.7241C38.5705 21.7241 42.2758 25.4293 42.2758 29.9999C42.2758 34.5706 38.5705 38.2758 33.9999 38.2758Z" fill="#955BA5"/>
</g>
<defs>
<filter id="filter0_d" x="0" y="0" width="68" height="68" filterUnits="userSpaceOnUse" color-interpolation-filters="sRGB">
<feFlood flood-opacity="0" result="BackgroundImageFix"/>
<feColorMatrix in="SourceAlpha" type="matrix" values="0 0 0 0 0 0 0 0 0 0 0 0 0 0 0 0 0 0 127 0"/>
<feOffset dy="4"/>
<feGaussianBlur stdDeviation="2"/>
<feColorMatrix type="matrix" values="0 0 0 0 0 0 0 0 0 0 0 0 0 0 0 0 0 0 0.25 0"/>
<feBlend mode="normal" in2="BackgroundImageFix" result="effect1_dropShadow"/>
<feBlend mode="normal" in="SourceGraphic" in2="effect1_dropShadow" result="shape"/>
</filter>
</defs>
</svg>
