<svg width="58" height="68" viewBox="0 0 58 68" fill="none" xmlns="http://www.w3.org/2000/svg">
<g clip-path="url(#clip0)" filter="url(#filter0_d)">
<path d="M29 16.5517H9.17241C6.31577 16.5517 4 19.3306 4 22.7586V45.5172C4 48.9452 6.31577 51.7241 9.17241 51.7241H22.1034C22.6454 51.7217 23.1566 52.0261 23.4828 52.5455L27.6388 59.1724C27.9574 59.6915 28.4627 59.998 29 59.998C29.5373 59.998 30.0426 59.6915 30.3612 59.1724L34.5172 52.5517C34.8429 52.0307 35.3539 51.7241 35.8966 51.7241H48.8276C51.6842 51.7241 54 48.9452 54 45.5172V22.7586C54 19.3306 51.6842 16.5517 48.8276 16.5517H29Z" fill="#F0C419"/>
<path d="M29.2155 34.6138C29.5393 34.2257 29.7212 33.6991 29.7212 33.15C29.7212 32.6009 29.5393 32.0743 29.2155 31.6862C28.9108 31.3186 28.5008 31.1041 28.069 31.0862C27.8104 31.0731 27.573 30.9114 27.431 30.6517L27.7328 30.5483L43.2327 11.9379L45.069 14.131L45.6724 14.8655L29.2155 34.6138Z" fill="#802D40"/>
<path d="M52.3793 6.81721L48.1121 11.9379L43.2328 6.08273L47.5 0.962037C48.5131 -0.248169 50.1508 -0.248169 51.1638 0.962037L52.3793 2.431C53.3878 3.64266 53.3878 5.60555 52.3793 6.81721Z" fill="#FF5364"/>
<path d="M43.2327 11.9379L27.7327 30.5482L27.431 30.6517C27.3431 30.4989 27.2923 30.3198 27.2845 30.1344C27.2527 29.3141 26.821 28.5934 26.1832 28.2958C25.5455 27.9981 24.8214 28.1796 24.3362 28.7586L40.8017 9.01031L42.6293 11.2034L43.2327 11.9379Z" fill="#D25627"/>
<path d="M49.9423 3.8917C49.6958 3.59577 49.325 3.50721 49.0028 3.66731C48.6806 3.82741 48.4706 4.20464 48.4706 4.62307C48.4706 5.04151 48.6806 5.41874 49.0028 5.57884C49.325 5.73894 49.6958 5.65038 49.9423 5.35445C50.2789 4.95049 50.2789 4.29566 49.9423 3.8917Z" fill="white"/>
<path d="M46.2854 6.81726L45.0656 8.28105C44.8415 8.54078 44.7516 8.92541 44.8305 9.28709C44.9094 9.64878 45.1448 9.93124 45.4462 10.0259C45.7476 10.1206 46.0681 10.0127 46.2845 9.74381L47.5044 8.27588C47.8087 7.86617 47.7934 7.24255 47.4696 6.855C47.1457 6.46745 46.626 6.45088 46.2854 6.81726Z" fill="white"/>
<path d="M25.4052 36.7241L22.2845 38.462C21.953 38.6591 21.5538 38.5804 21.2922 38.2666C21.0306 37.9527 20.9651 37.4736 21.1293 37.0758L22.5776 33.331C23.24 33.5859 23.8427 34.0255 24.3362 34.6138C24.8323 35.2005 25.1995 35.9255 25.4052 36.7241Z" fill="#35495E"/>
<path d="M29.2154 34.6137L25.4051 36.7241C25.1994 35.9255 24.8322 35.2005 24.3361 34.6137C23.8426 34.0255 23.2399 33.5859 22.5775 33.331L24.3361 28.7586C24.8214 28.1796 25.5454 27.9981 26.1832 28.2958C26.821 28.5934 27.2526 29.3142 27.2844 30.1344C27.2923 30.3198 27.343 30.4989 27.431 30.6517C27.5729 30.9113 27.8103 31.0731 28.0689 31.0862C28.5007 31.104 28.9107 31.3186 29.2154 31.6862C29.5392 32.0742 29.7211 32.6008 29.7211 33.15C29.7211 33.6991 29.5392 34.2257 29.2154 34.6137Z" fill="#F9EAB0"/>
<path d="M9.1725 22.7586H8.31043C7.83433 22.7586 7.44836 22.2955 7.44836 21.7241C7.44836 21.1528 7.83433 20.6896 8.31043 20.6896H9.1725C9.64861 20.6896 10.0346 21.1528 10.0346 21.7241C10.0346 22.2955 9.64861 22.7586 9.1725 22.7586Z" fill="white"/>
<path d="M24.6897 22.7586H12.6207C12.1446 22.7586 11.7587 22.2955 11.7587 21.7241C11.7587 21.1528 12.1446 20.6896 12.6207 20.6896H24.6897C25.1658 20.6896 25.5518 21.1528 25.5518 21.7241C25.5518 22.2955 25.1658 22.7586 24.6897 22.7586Z" fill="white"/>
<path d="M49.6897 47.5862H47.9656C47.4895 47.5862 47.1035 47.123 47.1035 46.5517C47.1035 45.9804 47.4895 45.5172 47.9656 45.5172H49.6897C50.1658 45.5172 50.5518 45.9804 50.5518 46.5517C50.5518 47.123 50.1658 47.5862 49.6897 47.5862Z" fill="white"/>
<path d="M44.5173 47.5862H35.8966C35.4205 47.5862 35.0345 47.123 35.0345 46.5517C35.0345 45.9804 35.4205 45.5172 35.8966 45.5172H44.5173C44.9934 45.5172 45.3794 45.9804 45.3794 46.5517C45.3794 47.123 44.9934 47.5862 44.5173 47.5862Z" fill="white"/>
<path d="M48.1121 11.9379L45.6725 14.8655L45.069 14.131L43.2328 11.9379L42.6293 11.2034L40.8018 9.01029L43.2328 6.0827L48.1121 11.9379Z" fill="#95A5A5"/>
</g>
<defs>
<filter id="filter0_d" x="0" y="0" width="58" height="68" filterUnits="userSpaceOnUse" color-interpolation-filters="sRGB">
<feFlood flood-opacity="0" result="BackgroundImageFix"/>
<feColorMatrix in="SourceAlpha" type="matrix" values="0 0 0 0 0 0 0 0 0 0 0 0 0 0 0 0 0 0 127 0"/>
<feOffset dy="4"/>
<feGaussianBlur stdDeviation="2"/>
<feColorMatrix type="matrix" values="0 0 0 0 0 0 0 0 0 0 0 0 0 0 0 0 0 0 0.25 0"/>
<feBlend mode="normal" in2="BackgroundImageFix" result="effect1_dropShadow"/>
<feBlend mode="normal" in="SourceGraphic" in2="effect1_dropShadow" result="shape"/>
</filter>
<clipPath id="clip0">
<rect width="50" height="60" fill="white" transform="translate(4)"/>
</clipPath>
</defs>
</svg>
